# xmcd
#
# Track frame offsets: 
#        185
#        14975
#        32195
#        46710
#        56877
#        73947
#        89882
#        106225
#        117490
#        128715
#        140682
#
# Disc length: 2031 seconds
#
# Revision: 0
# Processed by: cddbd v1.5.2PL0 Copyright (c) Steve Scherf et al.
# Submitted via: ExactAudioCopyFreeDBPlugin 1.0
#
DISCID=ad07ed0b
DTITLE=Various Artist - Nashville 5
DYEAR=1900
DGENRE=Country
TTITLE0=Ohillip a Martha Andrews - Came to Surface Hard Today
TTITLE1=Jamey Burklow - He's My Son Too
TTITLE2=Johnny Duncan - I Wonder Who's Missing You Now
TTITLE3=Black Tie - Jerry Lee
TTITLE4=Johnny Counterfit - Lean Mean Press to Home
TTITLE5=Johnny Anthony - Leave Me Here to Burn
TTITLE6=Willies's Nelson's - My Body's Just a Suitcase for My Soul
TTITLE7=Smokin' Armadillos - My Girlfriend Might
TTITLE8=Black Tie - Ten
TTITLE9=Steve Wyles - Top of the Line
TTITLE10=Gina Lorne Salyer - You Didn't Burn That Bridge
EXTD=
EXTT0=
EXTT1=
EXTT2=
EXTT3=
EXTT4=
EXTT5=
EXTT6=
EXTT7=
EXTT8=
EXTT9=
EXTT10=
PLAYORDER=
